<?xml version="1.0" encoding="utf-8"?>
<!-- Generator: Adobe Illustrator 25.3.1, SVG Export Plug-In . SVG Version: 6.00 Build 0)  -->
<svg version="1.1" id="Layer_1" xmlns="http://www.w3.org/2000/svg" xmlns:xlink="http://www.w3.org/1999/xlink" x="0px" y="0px"
	 viewBox="0 0 727.52 199.11" style="enable-background:new 0 0 727.52 199.11;" xml:space="preserve">
<style type="text/css">
	.st0{fill:#414042;}
	.st1{fill:#6D6E71;}
	.st2{fill:#808285;}
	.st3{fill:#939598;}
	.st4{fill:#A7A9AC;}
	.st5{fill:#BCBEC0;}
	.st6{fill:#D1D3D4;}
	.st7{fill:#FFFFFF;}
</style>
<g id="Layer_2">
	<g id="Layer_4">
		<g id="Layer_5">
			<g id="Layer_7">
			</g>
			<g id="Layer_6">
			</g>
		</g>
		<g>
			<g>
				<polygon class="st0" points="278.68,0 320.58,0 314.32,29.81 272.41,29.81 				"/>
				<polygon class="st1" points="389.23,0 431.14,0 424.87,29.81 382.96,29.81 				"/>
				<polygon class="st2" points="448.5,0 490.41,0 484.15,29.81 442.24,29.81 				"/>
				<polygon class="st3" points="507.78,0 549.69,0 543.42,29.81 501.51,29.81 				"/>
				<polygon class="st4" points="567.06,0 608.96,0 602.7,29.81 560.79,29.81 				"/>
				<polygon class="st5" points="626.33,0 668.24,0 661.97,29.81 620.07,29.81 				"/>
				<polygon class="st6" points="685.61,0 727.52,0 721.25,29.81 679.34,29.81 				"/>
			</g>
			<g>
				<polygon class="st7" points="269.35,42.5 311.26,42.5 286.42,159.36 244.51,159.36 				"/>
				<path class="st7" d="M85.11,102.12l-31.32,33.7l-9.29,23.55H0L69.34,5.13h54.22l3.46,154.24h-44.5L85.11,102.12z M89.43,38.82
					H89l-23.55,63.29h19.66L89.43,38.82z"/>
				<path class="st7" d="M216.65,42.5h39.96l-23.76,112.11c-7.34,33.91-30.24,44.5-60.92,44.5c-43.85,0-42.34-19.87-40.4-33.7h38.02
					c-0.65,3.02-0.22,5.18,0.65,6.48c1.3,1.94,3.24,2.59,6.27,2.59c7.13,0,10.8-2.81,12.53-10.8l4.75-23.12h-0.43
					c-7.56,11.45-18.15,14.91-29.59,14.91c-27.65,0-27-29.6-21.17-56.81c5.62-26.35,14.9-59.19,48.82-59.19
					c13.18,0,19.66,5.83,21.82,17.5h0.43L216.65,42.5z M199.8,70.58c-8.21,0-11.23,8.43-15.77,30.24
					c-3.46,16.2-4.1,24.84,3.89,24.84c8.43,0,11.67-8.64,15.12-24.84C207.58,79.01,208.01,70.58,199.8,70.58z"/>
				<path class="st7" d="M333.07,5.13h41.91l-32.83,154.24h-41.91L333.07,5.13z"/>
				<path class="st7" d="M401.54,123.07c-1.3,6.27-2.81,14.69,5.83,14.69c8.21,0,10.8-7.56,13.18-19.44h38.02
					c-3.24,15.99-9.94,27-19.66,33.92c-9.72,6.91-22.25,10.15-36.51,10.15c-46.23,0-45.15-28.51-38.02-61.56
					c6.91-32.83,17.93-61.35,64.16-61.35c47.74,0,41.91,29.81,34.13,66.32l-0.43,1.94h-57.46L401.54,123.07z M428.98,78.79
					c2.59-11.45,0.65-14.69-6.05-14.69c-6.05,0-9.5,3.24-12.1,14.69l-6.05,28.95l22.68-22.03L428.98,78.79z"/>
			</g>
			<g>
				<path class="st0" d="M490.57,43.79h15.11c8.44,0,12.06,4.82,10.43,12.7c-1.35,6.1-4.9,11.57-11.92,12.84v0.14
					c6.17,0.57,7.52,4.19,6.1,11.99L509.23,87c-0.5,2.77-0.78,5.46,0.57,7.45h-5.32c-0.71-1.77-0.35-4.4,0.14-7.1l0.78-4.26
					c1.63-8.94,0.57-11.78-7.59-11.78h-8.58l-4.9,23.13h-4.54L490.57,43.79z M490.07,67.49h7.8c7.17,0,12.06-3.26,13.48-9.93
					c1.28-6.17-0.57-9.93-8.8-9.93h-8.3L490.07,67.49z"/>
				<path class="st0" d="M541.94,42.94c10.36,0,14.47,8.02,10.64,26.18c-3.9,18.16-11.42,26.18-21.78,26.18s-14.47-8.02-10.57-26.18
					C524.06,50.96,531.58,42.94,541.94,42.94z M531.65,91.47c7.24,0,12.91-5.96,16.39-22.35c3.48-16.39,0.35-22.35-6.88-22.35
					c-7.24,0-12.91,5.96-16.39,22.35C521.29,85.51,524.41,91.47,531.65,91.47z"/>
				<path class="st0" d="M565.5,43.79h13.98c9.79,0,12.49,5.18,10.93,12.7c-1.06,4.97-4.75,9.72-10.15,11l-0.07,0.14
					c6.03,1.21,8.16,6.03,6.81,12.63c-1.92,8.87-8.8,14.19-18.38,14.19h-13.91L565.5,43.79z M560.03,90.62h8.44
					c7.88,0,12.49-3.55,13.98-10.36c1.42-6.81-1.63-10.36-9.51-10.36h-8.44L560.03,90.62z M565.29,66.07h7.17
					c7.8,0,12.06-3.34,13.34-9.22c1.42-6.74-1.56-9.22-8.66-9.22h-7.95L565.29,66.07z"/>
				<path class="st0" d="M616.87,42.94c10.36,0,14.47,8.02,10.64,26.18c-3.9,18.16-11.42,26.18-21.78,26.18s-14.47-8.02-10.57-26.18
					C598.99,50.96,606.51,42.94,616.87,42.94z M606.58,91.47c7.24,0,12.91-5.96,16.39-22.35c3.48-16.39,0.35-22.35-6.88-22.35
					s-12.91,5.96-16.39,22.35C596.22,85.51,599.34,91.47,606.58,91.47z"/>
				<path class="st0" d="M649.08,47.62h-13.06l0.85-3.83h30.65l-0.85,3.83h-13.05l-9.93,46.83h-4.54L649.08,47.62z"/>
				<path class="st0" d="M672.22,43.79h4.54l-10.78,50.66h-4.54L672.22,43.79z"/>
				<path class="st0" d="M708.61,77.28c-3.05,11.57-9.79,18.02-18.87,18.02c-10.36,0-14.47-8.02-10.57-26.18
					c3.83-18.16,11.35-26.18,21.71-26.18c10.29,0,12.98,7.31,11.28,15.61h-4.54c1.42-6.88-0.99-11.78-7.52-11.78
					c-7.24,0-12.91,5.96-16.39,22.35s-0.35,22.35,6.88,22.35c6.39,0,11.14-5.46,13.48-14.19H708.61z"/>
				<path class="st0" d="M492.98,121.28c1.35-6.24-0.78-10-6.95-10c-6.17,0-10.43,4.04-11.49,9.08
					c-3.26,15.11,23.06,6.81,19.3,24.62c-2.06,9.79-9.29,14.83-18.52,14.83c-9.51,0-13.62-5.11-11.49-15.04l0.28-1.49h4.54
					l-0.43,1.92c-1.35,6.46,1.13,10.78,7.8,10.78c6.39,0,11.57-3.19,13.13-10.29c3.19-15.04-23.2-6.46-19.3-24.83
					c1.7-7.95,8.02-13.41,16.82-13.41c9.44,0,12.77,4.83,10.86,13.84H492.98z"/>
				<path class="st0" d="M510.65,138.67l-7.24-30.37h4.82l5.75,25.26l16.53-25.26h4.82l-20.15,30.37l-4.33,20.29h-4.54
					L510.65,138.67z"/>
				<path class="st0" d="M558.54,121.28c1.35-6.24-0.78-10-6.95-10c-6.17,0-10.43,4.04-11.49,9.08
					c-3.26,15.11,23.06,6.81,19.3,24.62c-2.06,9.79-9.29,14.83-18.52,14.83c-9.51,0-13.62-5.11-11.49-15.04l0.28-1.49h4.54
					l-0.43,1.92c-1.35,6.46,1.13,10.78,7.8,10.78c6.39,0,11.57-3.19,13.13-10.29c3.19-15.04-23.2-6.46-19.3-24.83
					c1.7-7.95,8.02-13.41,16.82-13.41c9.44,0,12.77,4.83,10.86,13.84H558.54z"/>
				<path class="st0" d="M581.82,112.13h-13.06l0.85-3.83h30.65l-0.85,3.83h-13.05l-9.93,46.83h-4.54L581.82,112.13z"/>
				<path class="st0" d="M604.66,108.3h25.12l-0.85,3.83h-20.58l-3.9,18.45h19.23l-0.78,3.83h-19.23l-4.47,20.72h21.21l-0.78,3.83
					h-25.76L604.66,108.3z"/>
				<path class="st0" d="M636.59,108.3h7.88l2.62,44.98h0.14l21.78-44.98h7.45l-10.78,50.66h-4.54l9.86-46.4h-0.14l-22.99,46.4
					h-4.26l-3.26-46.4h-0.14l-9.86,46.4h-4.54L636.59,108.3z"/>
				<path class="st0" d="M704.28,121.28c1.35-6.24-0.78-10-6.95-10c-6.17,0-10.43,4.04-11.49,9.08
					c-3.26,15.11,23.06,6.81,19.3,24.62c-2.06,9.79-9.29,14.83-18.52,14.83c-9.51,0-13.62-5.11-11.49-15.04l0.28-1.49h4.54
					l-0.43,1.92c-1.35,6.46,1.13,10.78,7.8,10.78c6.39,0,11.57-3.19,13.13-10.29c3.19-15.04-23.2-6.46-19.3-24.83
					c1.7-7.95,8.02-13.41,16.82-13.41c9.44,0,12.77,4.83,10.86,13.84H704.28z"/>
			</g>
		</g>
	</g>
	<g id="Layer_3">
	</g>
	<g id="Layer_8">
		<g id="Layer_10">
		</g>
		<g id="Layer_9">
		</g>
	</g>
</g>
</svg>
