<svg width="85" height="85" viewBox="0 0 85 85" fill="none" xmlns="http://www.w3.org/2000/svg">
<g clip-path="url(#clip0_282_340)">
<path d="M5.44651 63.3465L15.0628 50.0989C13.9196 45.8624 13.7179 41.4241 14.5248 37.1203C15.3318 32.8165 17.1475 28.7817 19.8373 25.2848C22.46 21.788 25.8895 18.9636 29.8571 17.0135C33.8247 15.0633 38.1285 14.0546 42.4995 14.0546C46.8706 14.0546 51.2416 15.0633 55.1419 17.0135C59.0422 18.9636 62.4718 21.788 65.1617 25.2848C67.7843 28.7817 69.6 32.8165 70.4742 37.1203C71.3484 41.4241 71.1467 45.8624 69.9362 50.0989L79.5525 63.3465C91.0517 42.9035 83.8563 17.0135 63.4133 5.51426C42.903 -6.0522 16.9457 1.21046 5.44651 21.6535C1.88242 27.9747 -0.000488281 35.1701 -0.000488281 42.5C-0.000488281 49.8299 1.88242 56.9581 5.44651 63.3465Z" fill="black"/>
<path d="M1.20996 84.7311H19.7028L42.4995 53.1924L65.2962 84.7311H83.7218L42.4995 27.7058L1.20996 84.7311Z" fill="black"/>
<path d="M42.4995 69.0625L31.8745 83.6551C38.8682 85.4707 46.1308 85.4707 53.1245 83.6551L42.4995 69.0625Z" fill="black"/>
</g>
<defs>
<clipPath id="clip0_282_340">
<rect width="85" height="85" fill="white" transform="translate(-0.000488281)"/>
</clipPath>
</defs>
</svg>
