<?xml version="1.0" encoding="UTF-8"?>
<svg id="_图层_1" data-name="图层_1" xmlns="http://www.w3.org/2000/svg" viewBox="0 0 238.56 54.4">
  <defs>
    <style>
      .cls-1 {
        fill: #6b53dc;
      }

      .cls-2 {
        fill: #32a5ff;
      }

      .cls-3 {
        fill: #fff;
      }
    </style>
  </defs>
  <g>
    <path class="cls-3" d="M143.63,12.65c-.4,5.77-5.39,10.44-11.17,10.44s-10.11-4.66-9.71-10.44c.4-5.74,5.42-10.44,11.17-10.44s10.11,4.69,9.71,10.44M138.67,12.65c.21-3.03-2.07-5.48-5.1-5.48s-5.65,2.45-5.86,5.48,2.09,5.48,5.1,5.48,5.65-2.45,5.86-5.48"/>
    <path class="cls-3" d="M152.5,8.38l.07.2c.32.65.96.88,1.59,1.1,1.47.48,3.03.82,4.45,1.44.58.25,1.15.57,1.66.93.73.54,1.36,1.22,1.72,2.07.68,1.53.5,3.42-.41,4.98-.87,1.53-2.37,2.72-4,3.4-1.63.68-3.43.85-5.12.74-2.79-.2-5.49-1.22-7.39-3.14l4.13-3.59c1.37,1.47,3.4,2.32,5.47,2.26,1.13-.03,2.53-.54,2.42-1.87-.02-.11-.04-.2-.07-.25-.34-.88-1.13-1.22-1.91-1.47-1.22-.42-2.5-.68-3.71-1.1-1.22-.42-2.39-1.02-3.2-2.01-.86-.99-1.25-2.35-1.16-3.71.12-1.36.76-2.71,1.76-3.71,1.07-1.13,2.53-1.81,4.03-2.21,1.85-.51,3.77-.54,5.58-.17,1.87.37,3.62,1.19,5.07,2.4l-1.72,1.56c-.76.71-1.57,1.41-2.36,2.12-1.22-1.5-3.35-2.21-5.34-1.73-.83.2-1.81.76-1.59,1.75"/>
    <polygon class="cls-3" points="184.47 2.49 184.13 7.44 177.71 7.44 176.64 22.81 171.68 22.81 172.76 7.44 166.34 7.44 166.69 2.49 184.47 2.49"/>
    <polygon class="cls-3" points="188.39 2.49 204.34 2.49 203.99 7.47 193 7.47 192.81 10.18 202.81 10.18 202.46 15.14 192.46 15.14 192.27 17.85 203.26 17.85 202.92 22.81 186.97 22.81 188.39 2.49"/>
    <path class="cls-3" d="M225.98,8.8c.24-3.49-2.38-6.31-5.87-6.31h-11.15l-.35,4.96h11.12c.75,0,1.31.61,1.26,1.36-.05.75-.7,1.35-1.45,1.36h-11.12l-.89,12.65h4.96l.54-7.7h3.72l2.8,7.7h5.45l-3.03-8.31c2.2-1.01,3.83-3.18,4.01-5.7"/>
    <path class="cls-3" d="M120.53,12.65c-.4,5.77-5.39,10.44-11.17,10.44s-10.11-4.66-9.71-10.44c.4-5.74,5.42-10.44,11.17-10.44s10.11,4.69,9.71,10.44M115.57,12.65c.21-3.03-2.07-5.48-5.1-5.48s-5.65,2.45-5.86,5.48,2.09,5.48,5.1,5.48,5.65-2.45,5.86-5.48"/>
    <path class="cls-3" d="M95.18,12.55c.76-1.05,1.22-2.33,1.22-3.73,0-3.47-2.86-6.33-6.33-6.33h-11.11l-.64,4.99h11.75c.73,0,1.34.61,1.34,1.34s-.61,1.37-1.34,1.37h-4.8l.18-1.37h-5.32l-1.79,13.99h11.93c3.47,0,6.33-2.83,6.33-6.3,0-1.51-.55-2.89-1.43-3.96M90.28,17.85h-5.98l.35-2.71h5.58c.76,0,1.4.61,1.4,1.37s-.61,1.34-1.34,1.34"/>
    <path class="cls-3" d="M140.02,41.87c.76-1.05,1.22-2.33,1.22-3.73,0-3.47-2.86-6.33-6.33-6.33h-11.11l-.64,4.99h11.75c.73,0,1.34.61,1.34,1.34s-.61,1.37-1.34,1.37h-4.8l.18-1.37h-5.32l-1.79,13.99h11.93c3.47,0,6.33-2.83,6.33-6.3,0-1.51-.55-2.89-1.43-3.96M135.12,47.18h-5.98l.35-2.71h5.58c.76,0,1.4.61,1.4,1.37s-.61,1.34-1.34,1.34"/>
    <polygon class="cls-3" points="189.82 31.81 194.77 31.81 193.35 52.12 188.39 52.12 189.82 31.81"/>
    <path class="cls-3" d="M202.67,41.97c-.21,3,2.07,5.42,5.07,5.42,1.49,0,2.9-.58,4.02-1.63l3.32,3.44c-2.12,2.04-4.86,3.18-7.68,3.18-5.74,0-10.08-4.66-9.68-10.41s5.39-10.41,11.14-10.41c3.03,0,5.82,1.34,7.65,3.64l-3.99,3.24c-.96-1.22-2.43-1.92-4.01-1.92-3,0-5.62,2.45-5.83,5.45"/>
    <path class="cls-3" d="M120.23,41.97c-.4,5.77-5.39,10.44-11.17,10.44s-10.11-4.66-9.71-10.44c.4-5.74,5.42-10.44,11.17-10.44s10.11,4.69,9.71,10.44M115.27,41.97c.21-3.03-2.07-5.48-5.1-5.48s-5.65,2.45-5.86,5.48,2.09,5.48,5.1,5.48,5.65-2.45,5.86-5.48"/>
    <path class="cls-3" d="M224.81,37.7l.07.2c.32.65.96.88,1.59,1.1,1.47.48,3.03.82,4.45,1.44.58.25,1.15.57,1.66.93.73.54,1.36,1.22,1.72,2.07.68,1.53.5,3.42-.41,4.98-.87,1.53-2.37,2.72-4,3.4-1.63.68-3.43.85-5.11.74-2.79-.2-5.49-1.22-7.39-3.14l4.13-3.59c1.37,1.47,3.4,2.32,5.47,2.26,1.13-.03,2.53-.54,2.42-1.87-.02-.11-.04-.2-.07-.25-.34-.88-1.13-1.22-1.91-1.47-1.22-.42-2.5-.68-3.71-1.1-1.22-.42-2.39-1.02-3.2-2.01-.86-.99-1.25-2.35-1.16-3.71.12-1.36.76-2.71,1.76-3.71,1.07-1.13,2.53-1.81,4.03-2.21,1.85-.51,3.77-.54,5.58-.17,1.87.37,3.62,1.19,5.07,2.4l-1.72,1.56c-.76.71-1.57,1.41-2.36,2.12-1.22-1.5-3.35-2.21-5.34-1.73-.83.2-1.81.76-1.59,1.75"/>
    <polygon class="cls-3" points="185.66 31.81 185.32 36.76 178.9 36.76 177.83 52.12 172.87 52.12 173.95 36.76 167.54 36.76 167.88 31.81 185.66 31.81"/>
    <path class="cls-3" d="M96.77,38.12c.24-3.49-2.38-6.31-5.87-6.31h-11.15l-.35,4.96h11.12c.75,0,1.31.61,1.26,1.36-.05.75-.7,1.35-1.45,1.36h-11.12l-.88,12.65h4.95l.54-7.7h3.71l2.8,7.7h5.45l-3.03-8.31c2.2-1.01,3.83-3.18,4.01-5.7"/>
    <path class="cls-3" d="M165.37,41.97c-.4,5.77-5.4,10.44-11.17,10.44s-10.11-4.66-9.71-10.44c.4-5.74,5.42-10.44,11.17-10.44s10.11,4.69,9.71,10.44M160.42,41.97c.21-3.03-2.07-5.48-5.1-5.48s-5.65,2.45-5.86,5.48,2.09,5.48,5.1,5.48,5.65-2.45,5.86-5.48"/>
  </g>
  <polygon class="cls-2" points="57.33 1.05 31.14 1.05 31.14 27.31 31.14 53.57 57.33 53.57 47.33 27.31 57.33 27.31 57.33 1.05"/>
  <path class="cls-1" d="M27.14,14.18V1.05H.95v52.52h26.19v-13.13c0-7.25-5.88-13.13-13.13-13.13,7.25,0,13.13-5.88,13.13-13.13"/>
</svg>