<?xml version="1.0" encoding="utf-8"?>
<!-- Generator: Adobe Illustrator 23.0.3, SVG Export Plug-In . SVG Version: 6.00 Build 0)  -->
<svg version="1.1" id="Layer_1" xmlns="http://www.w3.org/2000/svg" x="0px" y="0px"
	 viewBox="0 0 114.6 60.3" enable-background="new 0 0 114.6 60.3" xml:space="preserve">
<g id="Hyundai-Logo_1_">
	<path fill="#002C5F" d="M57.3,60.3C25.6,60.3,0,46.9,0,30.2S25.6,0,57.3,0c31.6,0,57.2,13.5,57.3,30.2
		C114.6,46.9,88.9,60.3,57.3,60.3z M68,45.5c5.7-13.6-5.1-11.9-7.8-11.3c-5,1.1-9.8,2.9-13.5,4.5c-10.8,4.2-16.5,8.5-18.5,10.2
		c-0.2,0.2-0.3,0.3-0.5,0.5c-0.3,0.3-0.5,0.5-0.5,0.9c0,0.5,0.5,0.8,1.2,1.1l0.3,0.2c8.1,2.5,18.1,4,28.6,4c0.2,0,0.3,0,0.6,0
		c1.2,0,2.6-0.3,3.8-0.9C65.4,52.6,67.1,47.8,68,45.5z M97,15.2c-0.2,0.2-0.3,0.6-0.6,0.9c-2.1,5.3-9.9,23.4-20,35.6
		c-0.2,0.3-0.3,0.6-0.5,0.8c-0.3,0.5-0.2,0.8,0,0.9c0.3,0.3,1.1,0.3,2.3,0c18.7-3.9,31.6-12.8,31.6-23.2c0-5.7-3.9-11-10.7-15.3
		c-0.6-0.5-0.9-0.5-1.2-0.5C97.5,14.5,97.2,14.9,97,15.2z M46.6,14.7c-5.7,13.6,5.1,11.9,8.1,11.4c5-1.1,9.8-2.9,13.5-4.5
		c10.7-4.3,16.4-8.5,18.4-10.2c0.2-0.2,0.3-0.3,0.5-0.5c0.3-0.3,0.5-0.5,0.5-0.9c0-0.5-0.5-0.8-1.2-1.1l-0.3-0.2
		c-8.1-2.5-18.1-4-28.6-4c-0.2,0-0.3,0-0.6,0c-1.2,0-2.7,0.3-3.9,0.8C49.2,7.6,47.5,12.4,46.6,14.7z M36.3,7
		C17.8,10.8,4.7,19.8,4.8,30.2c0,5.7,3.9,11,10.7,15.3c0.6,0.5,0.9,0.5,1.2,0.5c0.5-0.2,0.8-0.5,0.9-0.8c0.2-0.2,0.3-0.6,0.5-0.9
		c2.1-5.3,9.9-23.4,20-35.6c0.2-0.3,0.3-0.6,0.5-0.8c0.2-0.5,0.2-0.8,0-0.9C38.2,6.7,37.5,6.7,36.3,7z"/>
</g>
</svg>
