<svg width="240" height="93" viewBox="0 0 240 93" fill="none" xmlns="http://www.w3.org/2000/svg">
<path d="M228.168 0.0910996L206.137 36.8898L206.021 0.0910996H192.384L172.046 40.2846H145.86V29.3189H170.453L174.816 20.3179H145.86V9.26586H179.889L184.777 0.0911408H133.831V40.2847H113.97V0.0912231H101.941V49.4594L180.508 49.4593L196.628 18.0685L196.512 49.4593H209.848L229.215 17.7263V49.4593H240V0L228.168 0.0910996Z" fill="#E30613"/>
<path d="M113.651 76.3347C112.945 75.6079 111.962 75.0384 110.702 74.6303C110.575 74.5793 110.298 74.4943 109.87 74.3625C108.862 74.0352 108.131 73.7207 107.677 73.4275C107.224 73.1342 107.009 72.6964 107.034 72.1056C107.034 71.6211 107.249 71.2258 107.677 70.9198C108.105 70.6137 108.647 70.4608 109.303 70.4608C109.832 70.4608 110.416 70.5883 111.059 70.8432C111.701 71.0983 112.252 71.4425 112.705 71.8761L114.331 69.3132C113.55 68.7011 112.709 68.2548 111.815 67.9742C110.92 67.6938 109.87 67.5535 108.66 67.5535C107.375 67.5535 106.282 67.7958 105.388 68.2803C104.493 68.7649 103.825 69.3982 103.384 70.176C102.943 70.9538 102.724 71.7868 102.724 72.6794C102.724 73.8057 103.064 74.7791 103.745 75.6079C104.426 76.4367 105.459 77.0701 106.845 77.4993C107.022 77.5546 107.417 77.6736 108.034 77.8648C108.652 78.0561 109.214 78.3069 109.719 78.6086C110.223 78.9189 110.475 79.378 110.475 79.99C110.475 80.5766 110.227 81.0144 109.735 81.3077C109.244 81.6009 108.622 81.7497 107.866 81.7497C106.48 81.7497 105.119 81.0866 103.783 79.7605L102.006 82.1705C102.712 82.9865 103.611 83.6156 104.707 84.0619C105.803 84.5082 106.971 84.7334 108.206 84.7334C110.298 84.7334 111.903 84.2022 113.024 83.1438C114.146 82.0855 114.709 80.7679 114.709 79.1825C114.709 78.0136 114.356 77.0615 113.651 76.3347Z" fill="#706F6F"/>
<path d="M131.495 68.2836V75.3778C131.495 77.1018 131.083 78.5307 130.268 79.6688C129.449 80.8069 128.42 81.376 127.185 81.376C125.521 81.3507 124.652 80.4528 124.576 78.6825V68.2836H120.342V80.1999C120.367 81.6162 120.863 82.7712 121.833 83.669C122.804 84.5669 123.99 84.7554 125.452 84.7554C126.838 84.7554 128.105 84.6933 129.189 84.0484C130.272 83.4035 131.092 82.5394 131.646 81.4518L131.911 84.3351H135.729V68.2837L131.495 68.2836Z" fill="#706F6F"/>
<path d="M150.874 68.1152C150.055 68.4818 149.252 69.0045 148.471 69.6874C147.689 70.3702 147.085 71.1459 146.656 72.0015L146.354 68.2837H142.535V84.3351H146.77V77.4264C146.77 76.419 147.022 75.4622 147.526 74.5644C148.03 73.6665 148.736 72.9584 149.643 72.44C150.55 71.9215 151.584 71.7149 152.743 71.8118L152.932 67.563C152.378 67.563 151.693 67.7484 150.874 68.1152Z" fill="#706F6F"/>
<path d="M171.645 68.2837L171.305 70.1047C170.75 69.3459 169.927 68.7347 168.83 68.2668C167.734 67.799 166.516 67.5629 165.18 67.5629C163.743 67.5629 162.391 67.938 161.118 68.6841C159.845 69.4302 158.824 70.4671 158.056 71.7949C157.287 73.1226 156.9 74.5979 156.9 76.2123C156.9 77.8056 157.266 79.2556 157.997 80.5581C158.728 81.8605 159.711 82.8848 160.946 83.6309C162.181 84.3769 163.529 84.7521 164.991 84.7521C166.452 84.7521 167.734 84.4655 168.83 83.8964C169.927 83.3273 170.75 82.5771 171.305 81.6413V84.3348C171.279 85.6456 170.8 86.691 169.868 87.4624C168.935 88.2338 167.688 88.6215 166.125 88.6215C165.066 88.6215 164.121 88.4107 163.29 87.9934C162.458 87.5761 161.639 86.9902 160.832 86.2315L158.337 89.1526C159.522 90.1895 160.694 90.9777 161.853 91.5215C163.012 92.0652 164.462 92.3392 166.201 92.3392C167.99 92.3392 169.599 91.9893 171.023 91.2939C172.447 90.5984 173.556 89.6499 174.35 88.4487C175.144 87.2474 175.539 85.9028 175.539 84.4106V68.2836L171.645 68.2837ZM171.305 77.8815C170.952 78.9226 170.33 79.7445 169.435 80.3473C168.54 80.9585 167.473 81.262 166.238 81.262C165.306 81.262 164.458 81.0343 163.689 80.5791C162.92 80.1197 162.307 79.5043 161.853 78.7161C161.399 77.9363 161.172 77.0638 161.172 76.0985C161.172 74.6359 161.66 73.4261 162.63 72.4777C163.601 71.5293 164.802 71.053 166.238 71.053C167.448 71.053 168.507 71.3565 169.414 71.9634C170.322 72.5704 170.952 73.384 171.305 74.3914V77.8815Z" fill="#706F6F"/>
<path d="M182.31 68.2837V84.3348H186.544V68.2837H182.31ZM186.221 60.9453C185.729 60.5026 185.183 60.2792 184.579 60.2792C183.948 60.2792 183.381 60.5026 182.877 60.9453C182.369 61.3878 182.121 61.9231 182.121 62.5554C182.121 63.1877 182.369 63.7188 182.877 64.1487C183.381 64.5786 183.948 64.7936 184.579 64.7936C185.183 64.7936 185.729 64.5787 186.221 64.1487C186.712 63.7188 186.96 63.1877 186.96 62.5554C186.96 61.9231 186.712 61.3878 186.221 60.9453Z" fill="#706F6F"/>
<path d="M201.253 81.1963C199.791 81.1963 198.585 80.711 197.64 79.7447C196.695 78.7784 196.224 77.5759 196.224 76.1285C196.224 74.6898 196.67 73.483 197.564 72.5166C198.459 71.5503 199.552 71.0649 200.837 71.0649C201.568 71.0649 202.252 71.2024 202.895 71.473C203.538 71.7436 204.101 72.07 204.58 72.4564L206.697 69.6348C205.059 68.2433 202.979 67.5475 200.459 67.5475C198.972 67.5475 197.577 67.8954 196.279 68.5912C194.981 69.2869 193.944 70.2876 193.162 71.5889C192.381 72.8902 191.99 74.4063 191.99 76.1285C191.99 77.8851 192.356 79.4097 193.087 80.711C193.817 82.0123 194.855 83.013 196.203 83.7087C197.552 84.4045 199.11 84.7524 200.875 84.7524C201.908 84.7524 202.933 84.5763 203.954 84.2284C204.975 83.8805 205.84 83.4123 206.546 82.8198L204.429 80.1141C203.572 80.8355 202.513 81.1963 201.253 81.1963Z" fill="#706F6F"/>
<path d="M224.691 68.2837L224.389 70.4461C223.103 68.524 221.163 67.5629 218.566 67.5629C217.105 67.5629 215.76 67.9254 214.538 68.6463C213.316 69.367 212.341 70.3913 211.61 71.7191C210.879 73.0469 210.514 74.5811 210.514 76.3263C210.514 78.1262 210.866 79.6562 211.572 80.9208C212.278 82.1853 213.236 83.138 214.446 83.7829C215.656 84.4279 217.029 84.7524 218.567 84.7524C219.877 84.7524 221.024 84.4658 222.007 83.8968C222.99 83.3277 223.771 82.7038 224.351 82.021V84.3351H228.585V68.2837L224.691 68.2837ZM224.351 77.8479C224.023 78.9354 223.465 79.7743 222.671 80.3686C221.873 80.9629 220.898 81.2622 219.739 81.2622C218.857 81.2622 218.037 81.0345 217.281 80.5793C216.525 80.1199 215.92 79.5044 215.466 78.7162C215.013 77.9364 214.786 77.0639 214.786 76.0986C214.786 74.636 215.252 73.4262 216.185 72.4777C217.117 71.5293 218.251 71.053 219.587 71.053C220.722 71.053 221.726 71.3565 222.595 71.9635C223.465 72.5705 224.049 73.3672 224.351 74.3535L224.351 77.8479Z" fill="#706F6F"/>
<path d="M235.766 60.1064V84.3348H240V60.1064H235.766Z" fill="#706F6F"/>
<path d="M62.6515 35.2525L59.0352 40.7549C70.7701 49.3776 76.3717 61.9451 71.7534 71.3194C70.6124 73.6355 68.9311 75.5682 66.8449 77.1134C71.3535 75.321 74.892 72.3776 76.8791 68.3443C81.8377 58.2797 75.58 44.6669 62.6515 35.2525Z" fill="#770F00"/>
<path d="M62.7283 35.1348L62.6506 35.2529C75.5776 44.6673 81.8343 58.2791 76.876 68.3432C70.9825 80.3059 51.4781 82.7241 33.312 73.7445C15.1459 64.7649 5.19698 47.7879 11.0906 35.8252C16.6264 24.5887 34.1707 21.775 51.3348 28.9162L51.3432 28.897C30.3736 19.8887 8.78034 23.1724 2.03717 36.8594C-5.06194 51.269 6.98686 71.7507 28.9488 82.6068C50.9108 93.4627 74.4695 90.582 81.5687 76.1724C87.741 63.6438 79.4364 46.5261 62.7283 35.1348Z" fill="#E30613"/>
<path d="M51.3525 28.5677C34.1891 21.4278 16.6289 24.242 11.0933 35.4779C9.10368 39.5162 8.95517 44.7862 10.2829 49.4668C10.236 46.8636 10.7152 43.6863 11.8582 41.3662C17.0123 30.9041 33.079 28.14 48.706 34.5986L51.3525 28.5677Z" fill="#770F00"/>
<path d="M73.3244 5.22043L69.4094 0.0668945L63.8718 0.0698996L34.2598 67.481L35.2478 68.934L36.5034 68.89L73.3244 5.22043Z" fill="#706F6F"/>
</svg>
